<svg width="513.09" height="44.83" xmlns="http://www.w3.org/2000/svg">
 <!-- Created with Method Draw - http://github.com/duopixel/Method-Draw/ -->

 <g>
  <title>background</title>
  <rect x="-1" y="-1" width="515.09" height="46.83" id="canvas_background" fill="none"/>
 </g>
 <g>
  <title>Layer 1</title>
  <g transform="matrix(0.025102283200709508,0,0,-0.025102283200709508,-17136.976290588813,-11899.321787728042) " fill="#ffffff" id="svg_4" stroke="null">
   <path d="m691640.89534,-474041.425518c-258,-34 -429,-155 -487,-343c-31,-104 -23,-231 20,-320c54,-109 157,-185 327,-241c44,-15 154,-47 245,-71c270,-72 329,-97 402,-170c48,-48 61,-90 56,-179c-3,-60 -9,-82 -33,-122c-69,-112 -205,-164 -425,-164c-201,0 -369,51 -516,155c-34,25 -64,45 -66,45c-2,0 -20,-32 -39,-71l-34,-71l40,-34c55,-47 224,-129 316,-153c358,-92 720,-16 865,182c64,86 88,173 81,291c-6,109 -27,165 -89,232c-92,101 -195,146 -543,238c-250,66 -288,81 -356,143c-59,54 -79,99 -79,182c0,105 33,171 115,230c75,54 144,72 289,78c188,8 325,-22 472,-103l61,-34l31,73l31,72l-22,19c-35,30 -157,83 -243,105c-146,38 -284,48 -419,31z" id="svg_5" stroke="null"/>
   <path d="m694090.89534,-474042.425518c-346,-47 -620,-260 -733,-568c-70,-193 -70,-439 0,-632c98,-268 326,-472 609,-543c296,-75 630,-16 856,150l53,39l0,338l0,337l-90,0l-90,0l0,-294l0,-295l-30,-21c-45,-32 -147,-75 -225,-96c-51,-13 -106,-17 -205,-17c-117,0 -147,4 -225,27c-252,76 -433,259 -496,504c-26,103 -26,271 1,376c59,232 236,419 465,492c259,82 519,42 723,-111l64,-48l60,60l60,60l-69,57c-137,115 -327,182 -541,190c-64,3 -148,1 -187,-5z" id="svg_6" stroke="null"/>
   <path d="m698410.89534,-474041.425518c-258,-34 -429,-155 -487,-343c-31,-104 -23,-231 20,-320c54,-109 157,-185 327,-241c44,-15 154,-47 245,-71c270,-72 329,-97 402,-170c48,-48 61,-90 56,-179c-3,-60 -9,-82 -33,-122c-69,-112 -205,-164 -425,-164c-201,0 -369,51 -516,155c-34,25 -64,45 -66,45c-2,0 -20,-32 -39,-71l-34,-71l40,-34c55,-47 224,-129 316,-153c358,-92 720,-16 865,182c64,86 88,173 81,291c-6,109 -27,165 -89,232c-92,101 -195,146 -543,238c-250,66 -288,81 -356,143c-59,54 -79,99 -79,182c0,105 33,171 115,230c75,54 144,72 289,78c188,8 325,-22 472,-103l61,-34l31,73l31,72l-22,19c-35,30 -157,83 -243,105c-146,38 -284,48 -419,31z" id="svg_7" stroke="null"/>
   <path d="m700197.89534,-474041.425518c-317,-45 -566,-221 -697,-495c-67,-139 -80,-203 -80,-390c0,-187 13,-251 80,-390c115,-240 313,-401 582,-472c85,-22 118,-26 253,-26c135,0 168,4 253,26c318,84 554,316 639,627c33,122 33,347 0,468c-85,313 -324,548 -639,628c-109,27 -288,39 -391,24zm342,-190c121,-31 229,-92 316,-180c84,-85 130,-156 165,-257c59,-169 59,-347 0,-516c-35,-101 -81,-172 -165,-257c-87,-87 -193,-148 -317,-182c-109,-29 -297,-29 -406,0c-232,63 -415,231 -494,457c-26,75 -28,90 -28,240c0,150 2,165 28,240c90,257 304,431 582,475c83,12 228,4 319,-20z" id="svg_8" stroke="null"/>
   <path d="m682685.89534,-474131.425518c0,-69 2,-80 18,-80c9,0 201,-2 427,-3c386,-3 415,-4 490,-25c265,-73 447,-248 512,-492c24,-90 24,-300 0,-390c-65,-245 -249,-421 -512,-491c-72,-20 -114,-22 -412,-27l-333,-4l0,361l0,361l-95,0l-95,0l0,-440l0,-440l419,0c458,0 520,5 668,58c275,97 469,306 544,587c31,115 31,345 0,460c-75,281 -269,490 -544,587c-148,53 -210,58 -668,58l-419,0l0,-80z" id="svg_9" stroke="null"/>
   <path d="m685231.89534,-474087.425518c-9,-20 -184,-402 -388,-848c-204,-446 -377,-824 -385,-839l-14,-28l102,3l102,3l93,210c52,116 103,228 114,250c11,22 47,101 79,175c56,131 401,903 405,907c1,1 87,-188 191,-420c193,-433 206,-462 389,-872c59,-132 111,-244 115,-248c4,-4 51,-6 103,-5l96,3l-398,870l-397,870l-95,3l-94,3l-18,-37z" id="svg_10" stroke="null"/>
   <path d="m686515.89534,-474926.425518l0,-875l585,0l585,0l0,80l0,80l-490,0l-490,0l0,795l0,795l-95,0l-95,0l0,-875z" id="svg_11" stroke="null"/>
   <path d="m687985.89534,-474926.425518l0,-875l585,0l585,0l0,80l0,80l-490,0l-490,0l0,795l0,795l-95,0l-95,0l0,-875z" id="svg_12" stroke="null"/>
   <path d="m689971.89534,-474087.425518c-9,-20 -184,-402 -388,-848c-204,-446 -377,-824 -385,-839l-14,-28l102,3l102,3l96,215c53,118 112,247 130,285c19,39 41,89 50,112c21,55 415,933 417,930c7,-8 401,-895 420,-946c13,-35 35,-83 48,-107c13,-23 67,-141 121,-261c53,-120 100,-222 104,-226c4,-4 51,-6 103,-5l96,3l-398,870l-397,870l-95,3l-94,3l-18,-37z" id="svg_13" stroke="null"/>
   <path d="m695385.89534,-474926.425518l0,-875l95,0l95,0l0,875l0,875l-95,0l-95,0l0,-875z" id="svg_14" stroke="null"/>
   <path d="m696325.89534,-474125.425518c0,-70 2,-76 23,-81c12,-3 175,-6 362,-8c376,-3 397,-6 491,-70c167,-112 159,-380 -15,-484c-95,-57 -157,-65 -528,-71l-333,-5l0,-72l0,-73l383,-5c310,-3 394,-7 445,-21c119,-31 194,-83 233,-164c19,-39 23,-63 24,-142c0,-87 -3,-100 -30,-150c-82,-150 -208,-179 -772,-180l-283,0l0,-76l0,-76l418,5c386,4 423,5 491,25c259,73 383,232 368,472c-9,151 -67,258 -180,331c-33,21 -84,46 -113,56l-54,17l51,29c151,86 230,258 200,437c-14,89 -42,147 -96,208c-56,61 -137,109 -238,141c-80,24 -89,25 -464,29l-383,3l0,-75z" id="svg_15" stroke="null"/>
   <path d="m701655.89534,-474926.425518l0,-875l95,0l95,0l2,705l3,705l558,-705l559,-705l79,0l79,0l0,875l0,875l-95,0l-95,0l-2,-702l-3,-702l-555,700l-555,699l-83,3l-82,3l0,-876z" id="svg_16" stroke="null"/>
  </g>
 </g>
</svg>